<svg width="105" height="26" viewBox="0 0 105 26" fill="none" xmlns="http://www.w3.org/2000/svg">
<path fill-rule="evenodd" clip-rule="evenodd" d="M11.6935 0.776365C10.3425 0.927365 8.31451 1.55639 7.16046 2.18633C4.06146 3.85235 1.9635 6.45134 0.914487 9.91138C0.705507 10.5873 0.460507 12.4283 0.472467 13.2914C0.472467 14.0483 0.705497 15.9014 0.845457 16.3444C0.914487 16.5544 1.06647 17.0554 1.19446 17.4394C1.40448 18.0923 2.41852 20.1434 2.59247 20.2834C2.6275 20.3174 2.81452 20.5514 2.9895 20.8193C3.42047 21.4593 4.55047 22.6014 5.40149 23.2544C6.05347 23.7554 7.89551 24.8163 8.12848 24.8274C8.18646 24.8274 8.19751 24.3843 8.16351 23.8024C8.08148 22.5084 8.32647 20.7494 8.85046 18.9543C8.94348 18.6514 9.01348 18.2554 9.01348 18.0804C9.01348 17.9054 9.06048 17.7194 9.11846 17.6614C9.1765 17.5914 9.28148 17.2534 9.33947 16.9034C9.40948 16.5544 9.52648 16.0184 9.60748 15.7154C9.72448 15.2604 9.71246 15.0854 9.5495 14.5964C9.31647 13.8503 9.30548 12.6384 9.53851 12.0564C10.0855 10.6694 10.6915 10.1443 11.7175 10.1443C12.9525 10.1443 13.5465 11.0774 13.3135 12.6384C13.2085 13.3494 12.9175 14.4684 12.7305 14.8174C12.6845 14.9224 12.6025 15.2143 12.5675 15.4584C12.5215 15.7154 12.4285 16.0763 12.3695 16.2743C12.2065 16.7284 12.5215 17.6144 12.9405 17.9524C13.3365 18.2674 14.1645 18.3603 14.9215 18.1854C15.4575 18.0684 15.6795 17.9294 16.2385 17.3934C16.9025 16.7403 17.4035 15.9833 17.4035 15.6213C17.4035 15.5164 17.4625 15.3774 17.5315 15.3074C17.8585 14.9803 18.0325 12.4404 17.7885 11.3683C17.5205 10.1913 16.6925 9.03838 15.6205 8.36236C14.5485 7.67437 12.3345 7.47637 10.9715 7.94238C10.0155 8.26837 9.16547 8.81634 8.6175 9.45733C8.12849 10.0284 7.61549 10.9604 7.61549 11.2864C7.61549 11.4034 7.55751 11.5544 7.4875 11.6244C7.41749 11.6943 7.33552 12.1374 7.30049 12.6154C7.24251 13.3264 7.2895 13.6523 7.49849 14.3514C7.6385 14.8293 7.89552 15.3884 8.04652 15.5984C8.36152 16.0184 8.36152 16.1814 8.06947 17.2994C7.98848 17.6024 7.84852 17.8824 7.76649 17.9174C7.03248 18.1974 5.54151 16.4374 5.04048 14.6894C4.85353 14.0254 4.84151 11.6594 5.02852 10.9604C5.10951 10.6694 5.24953 10.2734 5.34352 10.0634C5.43648 9.86535 5.51753 9.66736 5.51753 9.62037C5.51753 9.57337 5.7505 9.17737 6.04249 8.74634C7.5575 6.46234 10.0155 5.25037 13.1275 5.25037C13.8385 5.25037 14.5725 5.29737 14.7705 5.35535C16.3785 5.85639 16.8095 6.01935 17.4385 6.3924C18.6625 7.12635 19.5475 8.1294 20.4335 9.80738C20.4915 9.91138 20.5735 10.1914 20.6085 10.4244C20.6545 10.6574 20.7365 10.8794 20.7945 10.9144C20.8535 10.9493 20.8995 11.7064 20.8995 12.6034C20.8995 14.2234 20.7835 14.8764 20.2935 16.2044C19.7455 17.6614 18.3355 19.2694 17.0545 19.8984C16.3205 20.2484 14.9455 20.6324 14.3975 20.6324C13.6635 20.6324 12.2185 20.0264 11.8225 19.5374C11.6355 19.3154 11.4605 19.3974 11.4605 19.7124C11.4605 19.8284 11.4145 20.0264 11.3445 20.1434C11.2865 20.2484 11.1815 20.5744 11.1225 20.8654C10.7845 22.4034 10.3075 23.6504 9.57352 24.8164C9.35154 25.1774 9.53855 25.3874 10.1445 25.4684C10.4475 25.5154 10.8545 25.5964 11.0415 25.6554C11.5075 25.8064 14.0365 25.7834 14.8865 25.6314C15.6555 25.4914 16.9025 25.1424 17.4625 24.9094C20.9815 23.4644 23.6495 20.5274 24.8035 16.7874C25.4205 14.7944 25.4555 12.4754 24.8965 10.1444C24.7105 9.38739 24.6515 9.21235 24.1505 8.04737C23.4285 6.34638 21.7965 4.3534 20.1425 3.1294C18.7205 2.08137 17.3225 1.47535 15.1435 0.950385C14.5375 0.811345 12.3815 0.694345 11.6935 0.776375L11.6935 0.776365ZM42.7725 4.98235C42.3175 5.05236 41.5955 5.79833 41.4084 6.38134C41.2104 7.02233 41.4084 7.70934 41.9685 8.24535C43.2035 9.44536 45.3475 8.31536 45.0795 6.59038C44.9165 5.49535 43.9144 4.79637 42.7725 4.98235ZM30.0705 5.67034C29.9655 5.78637 29.9655 19.8404 30.0825 20.0034C30.1405 20.0964 30.6415 20.1313 31.6205 20.1194L33.0765 20.1083L33.1355 17.7424C33.1815 15.8193 33.2285 15.3534 33.3685 15.2723C33.4615 15.2144 34.2535 15.1554 35.1275 15.1554C37.0384 15.1554 37.8425 15.0154 38.7164 14.5494C39.8585 13.9324 40.5234 13.0464 40.8845 11.6364C41.1055 10.7513 41.1055 10.1104 40.8724 9.20135C40.6625 8.38537 40.5694 8.18737 40.0685 7.52337C39.4515 6.69537 38.8215 6.24139 37.7965 5.88036C37.2255 5.69335 36.7474 5.65838 33.6595 5.62334C31.7365 5.60033 30.1175 5.62334 30.0705 5.67034H30.0705ZM36.4675 8.57134C37.2485 8.81634 37.6335 9.16637 37.8085 9.79534C38.0295 10.6224 37.8664 11.3914 37.3765 11.8574C36.8404 12.3594 36.3635 12.4753 34.8015 12.4753C33.7765 12.4753 33.4615 12.4404 33.3215 12.2894C33.1705 12.1494 33.1355 11.8113 33.1355 10.4824C33.1355 8.38537 33.1235 8.39733 34.7435 8.39733C35.4425 8.39733 36.1185 8.46734 36.4675 8.57134ZM56.9075 7.88433C56.9075 8.68835 56.8485 9.44537 56.7905 9.57336C56.7085 9.72534 56.5455 9.79534 56.2665 9.79534C56.0565 9.79534 55.8585 9.84235 55.8354 9.91138C55.8235 9.97034 55.8235 10.3784 55.8585 10.8094C55.9165 11.5784 55.9285 11.5904 56.2775 11.6714C56.4755 11.7064 56.6975 11.7764 56.7675 11.8234C56.8724 11.8813 56.9075 12.8014 56.9075 15.1324C56.9075 18.2674 56.9185 18.3834 57.1755 18.8494C57.7115 19.8404 58.5505 20.1894 60.2515 20.1434L61.3934 20.1083L61.4635 17.8354H61.1725C60.7295 17.8354 60.0765 17.4864 60.0065 17.2064C59.9714 17.0664 59.9365 15.8314 59.9365 14.4443C59.9365 12.5334 59.9714 11.8924 60.0885 11.7994C60.1694 11.7294 60.4965 11.6594 60.8105 11.6364L61.3934 11.6014V9.8534L60.7524 9.81837C60.4025 9.79536 60.0765 9.7134 60.0295 9.64338C59.9835 9.5624 59.9365 8.80439 59.9365 7.95435V6.41639H56.9075L56.9075 7.88433ZM100.221 6.48638C100.174 6.53234 100.14 7.26635 100.14 8.11736C100.14 9.77234 100.127 9.79534 99.4864 9.79534C99.1954 9.79534 99.1954 9.80736 99.2305 10.6924C99.2645 11.5784 99.2765 11.6014 99.5795 11.6363C99.7435 11.6594 99.9415 11.7414 99.9995 11.8113C100.069 11.8924 100.14 13.3024 100.174 15.0973C100.209 16.8224 100.267 18.3954 100.314 18.5814C100.453 19.0944 101.177 19.7463 101.864 19.9684C102.632 20.2244 104.59 20.2483 104.788 20.0033C104.881 19.8984 104.917 19.4784 104.893 18.8733L104.859 17.8943L104.45 17.8243C104.009 17.7544 103.507 17.5214 103.38 17.3234C103.333 17.2533 103.286 15.9833 103.286 14.5033C103.286 11.4614 103.215 11.6594 104.229 11.6594C104.893 11.6594 104.952 11.5434 104.893 10.4824L104.859 9.85338L103.344 9.73735L103.228 6.47435L101.76 6.43938C100.955 6.42736 100.267 6.45134 100.221 6.48638ZM51.1384 9.51538C50.5675 9.66735 49.9034 10.0514 49.4604 10.5063C48.9244 11.0654 48.7845 11.0304 48.7264 10.3193L48.6915 9.85339H45.7784V20.1083L47.2465 20.1313C48.6915 20.1664 48.7264 20.1544 48.7965 19.8984C48.8315 19.7584 48.8665 18.2784 48.8665 16.6003C48.8665 13.2794 48.8785 13.1863 49.5654 12.5334C49.8685 12.2424 50.0315 12.1844 50.6844 12.1494L51.4415 12.1024L51.8965 12.5804C52.4325 13.1393 52.3745 12.6034 52.4205 17.4283C52.4325 18.7094 52.4445 19.8404 52.4554 19.9564C52.4785 20.1194 52.6655 20.1434 53.9705 20.1194L55.4504 20.1083V11.9274L55.1125 11.2634C54.5295 10.1103 53.6325 9.56238 52.2575 9.49236C51.7684 9.48034 51.2675 9.48034 51.1384 9.51538ZM65.7054 9.51538C64.4465 9.85338 63.8405 10.1913 63.0594 10.9604C62.0105 12.0214 61.5334 13.2563 61.5334 14.9224C61.5444 17.8474 63.3745 20.0154 66.0775 20.2714C68.3855 20.4924 70.1685 19.8163 71.3105 18.2903C71.4735 18.0684 71.8225 17.3583 71.8225 17.2294C71.8225 17.1834 71.1465 17.1364 70.3315 17.1364H68.8395L68.4905 17.4974C68.0825 17.9174 67.5115 18.1854 66.9864 18.1854C66.4625 18.1854 65.6584 17.8124 65.2855 17.4164C65.0055 17.1014 64.5985 16.1924 64.5985 15.8784C64.5985 15.7734 65.4485 15.7384 68.1875 15.7384C70.1565 15.7384 71.8225 15.6914 71.9045 15.6454C72.0795 15.5284 71.9155 13.6754 71.6595 12.9994C71.1355 11.5904 70.1445 10.4014 69.1424 9.98139C68.8514 9.86536 68.5134 9.71338 68.3965 9.6554C68.1525 9.52734 66.0775 9.42237 65.7054 9.51538L65.7054 9.51538ZM67.9775 12.0674C68.4315 12.3824 68.8275 13.1284 68.7695 13.5474C68.7345 13.8154 68.7115 13.8154 66.7424 13.8503C64.4695 13.8854 64.4585 13.8734 64.8195 13.0344C65.0754 12.4524 65.5885 11.9274 66.0665 11.7764C66.6135 11.6014 67.4995 11.7414 67.9775 12.0674ZM82.9515 9.51537C81.5995 9.87737 80.6555 10.4714 79.9215 11.3914C79.6305 11.7643 79.3975 12.1144 79.3975 12.1844C79.3975 12.2424 79.3154 12.4524 79.2104 12.6504C79.1055 12.8364 78.9545 13.4194 78.8724 13.9434C78.4645 16.4374 79.5835 18.7684 81.6815 19.8163L82.4855 20.2244H84.1744C85.9225 20.2244 86.0745 20.1894 87.1465 19.6183C87.9265 19.1993 89.2085 17.5674 89.0105 17.2414C88.9645 17.1834 88.2994 17.1364 87.5184 17.1364H86.0854L85.7944 17.4744C84.6295 18.7914 82.4504 18.1154 81.9845 16.2864C81.9144 16.0414 81.9144 15.8314 81.9725 15.7844C82.0305 15.7504 83.6975 15.7264 85.6894 15.7383C88.5325 15.7383 89.3025 15.7154 89.3135 15.5984C89.4184 14.1424 88.7195 11.9864 87.8455 11.0534C87.3564 10.5294 86.5055 9.94636 86.0854 9.84235C85.8995 9.79535 85.6894 9.71338 85.6085 9.65541C85.4454 9.52735 83.3125 9.42237 82.9515 9.51539L82.9515 9.51537ZM84.7695 11.7884C85.2935 11.9744 85.8995 12.6274 85.9924 13.1284C86.1324 13.8854 86.1445 13.8854 83.9764 13.8503C82.0305 13.8154 82.0195 13.8154 81.9845 13.5474C81.9375 13.2214 82.3455 12.4174 82.6945 12.1144C83.1965 11.6943 84.0695 11.5544 84.7695 11.7884ZM93.0895 9.51538C90.7004 10.0864 89.8385 10.9374 89.8265 12.7084C89.8265 14.6194 90.7815 15.4233 93.6135 15.9244C95.5594 16.2624 96.1195 16.5654 96.0955 17.2994C96.0835 17.8243 95.7235 18.1623 95.0005 18.3133C94.0914 18.5113 93.3805 18.2903 92.8094 17.6493L92.3555 17.1363H90.9454C89.8035 17.1363 89.5355 17.1714 89.5355 17.2994C89.5355 17.6374 90.0015 18.5234 90.3855 18.9664C90.7475 19.3503 91.0275 19.5373 92.1215 20.0613C92.2264 20.1194 92.7975 20.2134 93.3695 20.2834C94.4295 20.4114 96.2705 20.2944 96.7376 20.0613C96.8414 20.0154 97.1445 19.8633 97.4005 19.7463C98.0654 19.4324 98.6945 18.7214 98.9275 18.0453C99.1845 17.2764 99.1135 16.2043 98.7524 15.4584C98.3215 14.5843 97.1795 13.9554 95.4775 13.6523C93.2875 13.2674 93.2524 13.2563 92.9025 12.9184C92.4835 12.4873 92.4835 12.3354 92.9025 11.8694C93.2405 11.4963 93.2645 11.4853 94.1965 11.4853C95.1286 11.4853 95.1515 11.4963 95.4895 11.8694C95.6765 12.0793 95.8285 12.3243 95.8285 12.4173C95.8285 12.5573 96.0725 12.5923 97.2846 12.5923C98.8925 12.5923 98.8455 12.6274 98.5665 11.7994C98.0535 10.3313 96.7376 9.58536 94.5455 9.50437C93.8705 9.48032 93.2175 9.48032 93.0895 9.51536L93.0895 9.51538ZM77.5905 9.76038C77.0785 9.93536 76.3674 10.5174 76.1455 10.9374C75.9244 11.3564 75.7264 11.1824 75.6685 10.4824L75.6095 9.85338H72.6965L72.6615 14.7474C72.6505 17.4394 72.6615 19.7584 72.6965 19.9103C72.7545 20.1664 72.7894 20.1664 74.1885 20.1434C74.9924 20.1313 75.6445 20.0613 75.6915 19.9914C75.7385 19.9333 75.7845 18.6983 75.7845 17.2533C75.7845 14.9693 75.8085 14.5613 76.0065 14.0483C76.4144 12.9883 77.2875 12.3594 78.3835 12.3594C78.6865 12.3594 78.8145 12.3003 78.8495 12.1493C78.9315 11.8113 78.9425 10.2383 78.8724 9.88834C78.8025 9.60935 78.7445 9.56236 78.4294 9.57335C78.2205 9.58537 77.8475 9.66733 77.5905 9.76035V9.76038ZM41.7004 9.93536C41.6655 10.0164 41.6534 12.3124 41.6655 15.0394L41.7004 19.9914L43.0865 20.0494C43.9255 20.0843 44.5315 20.0613 44.6245 19.9914C44.7535 19.8984 44.7884 18.9073 44.7884 14.9454C44.7994 12.2424 44.7645 9.97034 44.7295 9.91138C44.6135 9.73736 41.7585 9.76038 41.7004 9.93536Z" fill="white"></path>
</svg>
